<?xml version="1.0" standalone="no"?>
<!DOCTYPE svg PUBLIC "-//W3C//DTD SVG 20010904//EN"
 "http://www.w3.org/TR/2001/REC-SVG-20010904/DTD/svg10.dtd">
<svg version="1.0" xmlns="http://www.w3.org/2000/svg"
 width="512.000000pt" height="511.000000pt" viewBox="0 0 512.000000 511.000000"
 preserveAspectRatio="xMidYMid meet">

<g transform="translate(0.000000,511.000000) scale(0.100000,-0.100000)"
fill="#ffffff" stroke="none">
<path d="M2504 4651 c-60 -37 -64 -58 -64 -373 0 -250 2 -287 18 -317 50 -99
177 -105 239 -12 23 33 23 39 23 323 0 321 -3 342 -62 378 -42 26 -113 26
-154 1z"/>
<path d="M1735 4466 c-16 -7 -41 -26 -55 -41 -21 -22 -25 -36 -25 -83 1 -54 7
-68 134 -292 73 -129 145 -245 160 -257 96 -82 245 17 210 140 -15 53 -272
498 -299 519 -34 25 -88 31 -125 14z"/>
<path d="M3310 4457 c-25 -16 -70 -85 -173 -262 -118 -203 -140 -248 -144
-290 -8 -92 55 -152 150 -142 37 3 56 11 77 33 15 16 87 133 160 259 145 251
159 290 126 354 -36 69 -131 92 -196 48z"/>
<path d="M1951 3443 c-70 -36 -112 -88 -118 -145 -4 -37 18 -104 175 -523 99
-264 185 -492 191 -507 13 -34 -9 -61 -47 -56 -25 3 -38 33 -238 563 -117 308
-220 574 -228 592 -37 78 -147 114 -240 79 -81 -31 -145 -119 -133 -184 2 -15
115 -292 250 -617 134 -324 243 -595 240 -601 -5 -15 -56 -34 -88 -34 -20 0
-41 49 -221 517 -140 365 -207 527 -227 550 -53 60 -148 65 -234 12 -35 -22
-73 -76 -73 -104 0 -10 136 -380 301 -822 166 -442 299 -806 296 -809 -3 -3
-179 30 -390 75 -211 45 -390 81 -398 81 -8 0 -41 -13 -74 -29 -63 -30 -108
-71 -120 -109 -9 -32 19 -120 54 -168 28 -38 80 -65 763 -396 403 -196 755
-361 782 -367 27 -7 97 -12 155 -12 212 1 472 93 706 251 229 155 392 472 356
692 -14 81 -627 1796 -657 1835 -49 65 -128 97 -199 79 -44 -11 -101 -71 -115
-122 -16 -57 -21 -38 135 -499 69 -203 125 -377 125 -387 0 -20 -41 -44 -62
-35 -8 2 -103 256 -213 563 -109 308 -209 574 -222 592 -35 46 -64 63 -125 68
-45 5 -61 1 -107 -23z"/>
<path d="M3025 3416 c-29 -12 -32 -20 -69 -172 l-39 -159 98 -194 c66 -133
100 -190 105 -180 4 8 42 125 83 261 73 235 76 249 67 302 -11 72 -34 109 -80
135 -43 24 -118 27 -165 7z"/>
<path d="M3590 3404 c-25 -8 -53 -20 -62 -27 -9 -7 -96 -207 -193 -443 -164
-399 -176 -431 -167 -464 6 -19 45 -134 87 -255 182 -523 245 -837 201 -1000
-21 -78 -73 -202 -124 -295 -38 -70 -71 -110 -190 -228 l-143 -144 3 -57 3
-57 729 335 c816 376 757 341 798 475 17 58 19 74 9 107 -15 50 -59 100 -113
129 l-43 23 -368 -78 c-203 -42 -371 -75 -374 -72 -2 3 119 343 271 755 l277
750 -11 69 c-13 82 -42 145 -74 163 -36 19 -133 9 -191 -20 l-48 -25 -196
-512 c-108 -282 -202 -515 -210 -518 -19 -7 -61 21 -61 41 0 9 88 271 196 583
175 507 195 571 190 613 -8 70 -39 134 -75 152 -36 19 -62 19 -121 0z"/>
</g>
</svg>
